<!--?xml version="1.0" encoding="utf-8"?-->
<!-- Generator: Adobe Illustrator 15.1.0, SVG Export Plug-In . SVG Version: 6.00 Build 0)  -->

<svg version="1.1" id="_x32_" xmlns="http://www.w3.org/2000/svg" xmlns:xlink="http://www.w3.org/1999/xlink" x="0px" y="0px" width="512px" height="512px" viewBox="0 0 512 512" style="width: 256px; height: 256px; opacity: 1;" xml:space="preserve">
<style type="text/css">

	.st0{fill:#4B4B4B;}

</style>
<g>
	<path class="st0" d="M412.875,59.063c-54.219,0-111.531,24.063-144.047,62.047v331.828c32.516-38,89.828-62.063,144.047-62.063
		c54.188,0,99.125,0,99.125,0V59.063C512,59.063,467.063,59.063,412.875,59.063z" style="fill: rgb(75, 75, 75);"></path>
	<path class="st0" d="M99.125,59.063c-54.188,0-99.125,0-99.125,0v331.813c0,0,44.938,0,99.125,0
		c54.219,0,111.531,24.063,144.047,62.063V121.109C210.656,83.125,153.344,59.063,99.125,59.063z" style="fill: rgb(75, 75, 75);"></path>
</g>
</svg>
